# xmcd
#
# Track frame offsets:
#	150
#	14157
#	38617
#	62322
#	91402
#
# Disc length: 1421 seconds
#
# Revision: 1
# Processed by: cddbd v1.5PL3 Copyright (c) Steve Scherf et al.
# Submitted via: CDex 1.50Beta5
#
DISCID=34058b05
DTITLE=Digital Future Orchestra - dark EYEs
DYEAR=1900
DGENRE=Pop
TTITLE0=Bumble Bee
TTITLE1=Bird
TTITLE2=Siciliano
TTITLE3=朝
TTITLE4=黒い瞳(Virtual Live)
EXTD=
EXTT0=
EXTT1=
EXTT2=
EXTT3=
EXTT4=
PLAYORDER=
